<svg width="24" height="32" viewBox="0 0 24 32" fill="none" xmlns="http://www.w3.org/2000/svg">
<path d="M12 6.2467C9.6255 6.2468 7.32849 7.09182 5.51999 8.63055C3.71149 10.1693 2.50953 12.3013 2.12916 14.6452C1.74879 16.989 2.21485 19.3918 3.44393 21.4235C4.67301 23.4551 6.58491 24.9832 8.83755 25.7342C9.33755 25.8217 9.52505 25.5217 9.52505 25.2592C9.52505 25.0217 9.51254 24.2342 9.51254 23.3967C7.00003 23.8592 6.35003 22.7842 6.15003 22.2217C5.9281 21.6747 5.5763 21.1899 5.12503 20.8092C4.77503 20.6217 4.27503 20.1592 5.11252 20.1467C5.4323 20.1814 5.73901 20.2927 6.00666 20.4711C6.2743 20.6495 6.49499 20.8899 6.65003 21.1717C6.7868 21.4174 6.97071 21.6337 7.19122 21.8082C7.41173 21.9827 7.6645 22.112 7.93506 22.1886C8.20562 22.2652 8.48864 22.2877 8.76791 22.2548C9.04717 22.2219 9.3172 22.1342 9.56251 21.9967C9.6058 21.4883 9.83237 21.013 10.2 20.6592C7.97503 20.4092 5.65003 19.5467 5.65003 15.7217C5.63597 14.7279 6.00271 13.7663 6.67503 13.0342C6.36931 12.1705 6.40508 11.2225 6.77503 10.3842C6.77503 10.3842 7.6125 10.1217 9.52503 11.4092C11.1613 10.9592 12.8887 10.9592 14.525 11.4092C16.4375 10.1092 17.275 10.3842 17.275 10.3842C17.645 11.2225 17.6808 12.1705 17.375 13.0342C18.0494 13.7651 18.4164 14.7275 18.4 15.7217C18.4 19.5592 16.0625 20.4092 13.8375 20.6592C14.0762 20.9011 14.26 21.1915 14.3764 21.5107C14.4929 21.83 14.5393 22.1705 14.5125 22.5092C14.5125 23.8468 14.5 24.9217 14.5 25.2592C14.5 25.5217 14.6875 25.8342 15.1875 25.7342C17.4362 24.9771 19.3426 23.4455 20.5664 21.4128C21.7903 19.38 22.2519 16.9785 21.8689 14.6369C21.4859 12.2953 20.2832 10.1661 18.4755 8.62922C16.6678 7.09235 14.3727 6.24794 12 6.2467Z" fill="white"/>
</svg>
