<svg width="33" height="35" viewBox="0 0 33 35" fill="none" xmlns="http://www.w3.org/2000/svg">
<path d="M19.4909 4.01188L26.6878 8.16813C27.8778 6.91542 29.8567 6.86584 31.1094 8.05583C31.3253 8.26 31.509 8.49479 31.6592 8.75146C32.5182 10.2506 31.9976 12.1625 30.4984 13.0215C30.2446 13.1673 29.9719 13.2767 29.6846 13.3467V21.6577C31.3559 22.0558 32.3884 23.7329 31.9888 25.4042C31.9188 25.7017 31.8036 25.9875 31.6505 26.2515C30.7871 27.7433 28.8782 28.2552 27.3819 27.3919C27.0961 27.2271 26.8351 27.0142 26.6148 26.7663L19.4617 30.8963C20.0042 32.5354 19.1146 34.3015 17.4769 34.8425C17.1605 34.946 16.8323 35 16.4998 35C14.7776 35.0015 13.3805 33.6073 13.379 31.885C13.379 31.586 13.4213 31.2871 13.5073 30.9969L6.30901 26.845C5.11901 28.0904 3.14297 28.1385 1.8961 26.9471C0.650679 25.7571 0.604012 23.781 1.79401 22.5342C2.20672 22.101 2.7361 21.7963 3.31651 21.6548L3.31797 13.3438C1.64089 12.9413 0.608387 11.254 1.01235 9.57542C1.08089 9.28667 1.19172 9.00813 1.33901 8.75C2.20235 7.25667 4.11276 6.74625 5.60755 7.60958C5.86568 7.75688 6.10193 7.94208 6.30755 8.15938L13.5088 4.00313C13.0188 2.35083 13.9623 0.616876 15.6103 0.128334C15.8976 0.0422928 16.1994 1.14424e-06 16.4998 1.14424e-06C18.2221 -0.00145719 19.6192 1.39125 19.6207 3.11208C19.6221 3.41688 19.5769 3.72167 19.4909 4.01188ZM18.7398 5.29083C18.7121 5.32146 18.6859 5.34771 18.6553 5.37542L28.0776 21.6942C28.1155 21.681 28.1592 21.6708 28.1971 21.6606V13.3379C26.5273 12.9252 25.5109 11.235 25.9251 9.56375C25.9338 9.52875 25.9426 9.49229 25.9528 9.45875L18.7398 5.29083ZM14.343 5.37688L14.2555 5.28938L7.04255 9.44854C7.51943 11.1038 6.56568 12.829 4.91193 13.3058C4.87401 13.3175 4.83755 13.3263 4.8011 13.3365V21.6606L4.9236 21.6942L14.3459 5.37542L14.343 5.37688ZM17.3705 6.11625C16.8017 6.27958 16.1994 6.27958 15.6321 6.11625L6.2113 22.4335C6.64005 22.8463 6.94339 23.3742 7.0863 23.9517H25.9148C26.0563 23.3713 26.3626 22.8419 26.7942 22.4292L17.3705 6.11625ZM18.8084 29.7806L25.9732 25.6419C25.9513 25.5733 25.9338 25.5048 25.9178 25.4348H7.08193L7.0513 25.5558L14.254 29.715C14.8198 29.1258 15.6161 28.7627 16.4998 28.7627C17.4142 28.7627 18.2353 29.155 18.8084 29.7806Z" fill="white"/>
</svg>
