<svg width="16" height="11" viewBox="0 0 16 11" fill="none" xmlns="http://www.w3.org/2000/svg">
<path d="M2 0.666656H14C14.2652 0.666656 14.5196 0.772013 14.7071 0.95955C14.8946 1.14709 15 1.40144 15 1.66666V9.66666C15 9.93187 14.8946 10.1862 14.7071 10.3738C14.5196 10.5613 14.2652 10.6667 14 10.6667H2C1.73478 10.6667 1.48043 10.5613 1.29289 10.3738C1.10536 10.1862 1 9.93187 1 9.66666V1.66666C1 1.40144 1.10536 1.14709 1.29289 0.95955C1.48043 0.772013 1.73478 0.666656 2 0.666656Z" stroke="#B2B9C3" stroke-width="0.666667" stroke-linecap="round" stroke-linejoin="round"/>
<path d="M14.7741 1.03333L9.34474 5.20933C8.95927 5.506 8.4865 5.66687 8.00007 5.66687C7.51365 5.66687 7.04088 5.506 6.65541 5.20933L1.22607 1.03333" stroke="#B2B9C3" stroke-width="0.666667" stroke-linecap="round" stroke-linejoin="round"/>
</svg>
