<svg width="12" height="16" viewBox="0 0 12 16" fill="none" xmlns="http://www.w3.org/2000/svg">
<path d="M2.5 6.5V4C2.5 3.07174 2.86875 2.1815 3.52513 1.52513C4.1815 0.868749 5.07174 0.5 6 0.5C6.92826 0.5 7.8185 0.868749 8.47487 1.52513C9.13125 2.1815 9.5 3.07174 9.5 4V6.5M6 10V12M1.5 6.5H10.5C10.7652 6.5 11.0196 6.60536 11.2071 6.79289C11.3946 6.98043 11.5 7.23478 11.5 7.5V14.5C11.5 14.7652 11.3946 15.0196 11.2071 15.2071C11.0196 15.3946 10.7652 15.5 10.5 15.5H1.5C1.23478 15.5 0.980429 15.3946 0.792893 15.2071C0.605357 15.0196 0.5 14.7652 0.5 14.5V7.5C0.5 7.23478 0.605357 6.98043 0.792893 6.79289C0.980429 6.60536 1.23478 6.5 1.5 6.5Z" stroke="#B2B9C3" stroke-width="0.666667" stroke-linecap="round" stroke-linejoin="round"/>
</svg>
