<svg width="42" height="22" viewBox="0 0 42 22" fill="none" xmlns="http://www.w3.org/2000/svg">
<path fill-rule="evenodd" clip-rule="evenodd" d="M29.1282 0.128478C26.7108 0.446697 24.5138 1.57682 23.4982 3.02463C22.8629 3.93008 22.6647 4.54705 22.5781 5.88562C22.345 9.49661 24.3978 11.3675 30.1835 12.8175C31.4549 13.136 32.8417 13.5734 33.2656 13.7897C35.9901 15.1791 34.6963 18.1472 31.4851 17.8741C29.8158 17.7322 28.8066 17.0027 28.2922 15.5663L27.8895 14.4419H26.0684C25.0671 14.4419 23.675 14.5192 22.9756 14.6138C21.5414 14.8077 21.4298 15.1059 22.0993 16.9568C23.0052 19.4609 24.641 20.9414 27.2624 21.6295C29.2088 22.1405 33.7564 22.1189 35.6685 21.5898C39.0798 20.6456 41.1759 18.0796 41.1642 14.862C41.1502 11.0428 39.2273 9.34278 33.219 7.83684C29.3273 6.86164 28.8565 6.65643 28.65 5.8448C28.5132 5.30758 28.6374 5.01883 29.217 4.52731C30.6409 3.31959 33.1957 3.94089 33.9296 5.67285C34.3733 6.7197 34.5852 6.75485 38.4865 6.4296L40.547 6.25792L40.2966 5.14536C39.7834 2.86268 37.9107 1.00122 35.5495 0.426692C33.8167 0.00519309 31.0436 -0.123502 29.1282 0.128478ZM0.317383 11.0623V21.7417H3.60754H6.8977V17.4159V13.09H7.70489C8.95323 13.09 9.74807 14.006 11.9281 17.9566L13.9422 21.6065L17.6859 21.6817C19.7447 21.723 21.4292 21.7028 21.4292 21.6365C21.4292 21.3302 17.9628 15.0169 17.3588 14.2226C16.9842 13.7303 16.2464 13.1095 15.7194 12.8429L14.7615 12.3582L16.2738 11.6752C21.3782 9.37089 20.7816 1.81718 15.4055 0.680292C14.5958 0.508881 11.0976 0.382892 7.15845 0.382892H0.317383V11.0623ZM12.3393 5.18186C13.6225 6.25251 13.2016 8.12235 11.5516 8.68146C11.0277 8.85882 9.76645 9.01104 8.74841 9.01942L6.8977 9.03456V6.87164V4.70873H9.33489C11.2574 4.70873 11.8919 4.80876 12.3393 5.18186Z" fill="white"/>
</svg>
